<mxfile host="app.diagrams.net" modified="2023-11-15T06:11:21.507Z" agent="Mozilla/5.0 (Macintosh; Intel Mac OS X 10_15_7) AppleWebKit/605.1.15 (KHTML, like Gecko) Version/17.0 Safari/605.1.15" etag="3LFBcc2vuPywMdTG-PNr" version="22.1.1" type="device">
  <diagram id="C5RBs43oDa-KdzZeNtuy" name="Page-1">
    <mxGraphModel dx="594" dy="1667" grid="1" gridSize="10" guides="1" tooltips="1" connect="1" arrows="1" fold="1" page="1" pageScale="1" pageWidth="827" pageHeight="1169" math="0" shadow="0">
      <root>
        <mxCell id="WIyWlLk6GJQsqaUBKTNV-0" />
        <mxCell id="WIyWlLk6GJQsqaUBKTNV-1" parent="WIyWlLk6GJQsqaUBKTNV-0" />
        <mxCell id="aqEgcLrSa4jlk6EzU5gQ-12" value="Tracking Df" style="rounded=0;whiteSpace=wrap;html=1;" parent="WIyWlLk6GJQsqaUBKTNV-1" vertex="1">
          <mxGeometry x="10" y="30" width="120" height="60" as="geometry" />
        </mxCell>
        <mxCell id="aqEgcLrSa4jlk6EzU5gQ-13" value="Plays Df" style="rounded=0;whiteSpace=wrap;html=1;" parent="WIyWlLk6GJQsqaUBKTNV-1" vertex="1">
          <mxGeometry x="140" y="30" width="120" height="60" as="geometry" />
        </mxCell>
        <mxCell id="aqEgcLrSa4jlk6EzU5gQ-14" value="" style="endArrow=classic;html=1;rounded=0;exitX=0.442;exitY=1.017;exitDx=0;exitDy=0;exitPerimeter=0;" parent="WIyWlLk6GJQsqaUBKTNV-1" source="aqEgcLrSa4jlk6EzU5gQ-13" edge="1">
          <mxGeometry width="50" height="50" relative="1" as="geometry">
            <mxPoint x="260" y="770" as="sourcePoint" />
            <mxPoint x="140" y="170" as="targetPoint" />
          </mxGeometry>
        </mxCell>
        <mxCell id="aqEgcLrSa4jlk6EzU5gQ-15" value="" style="endArrow=classic;html=1;rounded=0;exitX=0.5;exitY=1;exitDx=0;exitDy=0;" parent="WIyWlLk6GJQsqaUBKTNV-1" source="aqEgcLrSa4jlk6EzU5gQ-12" edge="1">
          <mxGeometry width="50" height="50" relative="1" as="geometry">
            <mxPoint x="260" y="770" as="sourcePoint" />
            <mxPoint x="100" y="170" as="targetPoint" />
          </mxGeometry>
        </mxCell>
        <mxCell id="aqEgcLrSa4jlk6EzU5gQ-18" value="" style="edgeStyle=orthogonalEdgeStyle;rounded=0;orthogonalLoop=1;jettySize=auto;html=1;" parent="WIyWlLk6GJQsqaUBKTNV-1" source="aqEgcLrSa4jlk6EzU5gQ-16" target="aqEgcLrSa4jlk6EzU5gQ-17" edge="1">
          <mxGeometry relative="1" as="geometry" />
        </mxCell>
        <mxCell id="aqEgcLrSa4jlk6EzU5gQ-16" value="Create BallCarrier PositionCols" style="rhombus;whiteSpace=wrap;html=1;" parent="WIyWlLk6GJQsqaUBKTNV-1" vertex="1">
          <mxGeometry x="50" y="160" width="140" height="80" as="geometry" />
        </mxCell>
        <mxCell id="aqEgcLrSa4jlk6EzU5gQ-20" value="" style="edgeStyle=orthogonalEdgeStyle;rounded=0;orthogonalLoop=1;jettySize=auto;html=1;" parent="WIyWlLk6GJQsqaUBKTNV-1" source="aqEgcLrSa4jlk6EzU5gQ-17" target="aqEgcLrSa4jlk6EzU5gQ-19" edge="1">
          <mxGeometry relative="1" as="geometry" />
        </mxCell>
        <mxCell id="aqEgcLrSa4jlk6EzU5gQ-17" value="Join Tracking DF" style="rhombus;whiteSpace=wrap;html=1;" parent="WIyWlLk6GJQsqaUBKTNV-1" vertex="1">
          <mxGeometry x="50" y="270" width="140" height="80" as="geometry" />
        </mxCell>
        <mxCell id="aqEgcLrSa4jlk6EzU5gQ-22" value="" style="edgeStyle=orthogonalEdgeStyle;rounded=0;orthogonalLoop=1;jettySize=auto;html=1;" parent="WIyWlLk6GJQsqaUBKTNV-1" source="aqEgcLrSa4jlk6EzU5gQ-19" target="aqEgcLrSa4jlk6EzU5gQ-21" edge="1">
          <mxGeometry relative="1" as="geometry" />
        </mxCell>
        <mxCell id="aqEgcLrSa4jlk6EzU5gQ-19" value="calculate ball carrier diffs" style="rhombus;whiteSpace=wrap;html=1;" parent="WIyWlLk6GJQsqaUBKTNV-1" vertex="1">
          <mxGeometry x="50" y="390" width="140" height="80" as="geometry" />
        </mxCell>
        <mxCell id="aqEgcLrSa4jlk6EzU5gQ-24" value="" style="edgeStyle=orthogonalEdgeStyle;rounded=0;orthogonalLoop=1;jettySize=auto;html=1;" parent="WIyWlLk6GJQsqaUBKTNV-1" source="aqEgcLrSa4jlk6EzU5gQ-21" target="aqEgcLrSa4jlk6EzU5gQ-23" edge="1">
          <mxGeometry relative="1" as="geometry" />
        </mxCell>
        <mxCell id="aqEgcLrSa4jlk6EzU5gQ-21" value="join player data" style="rhombus;whiteSpace=wrap;html=1;" parent="WIyWlLk6GJQsqaUBKTNV-1" vertex="1">
          <mxGeometry x="50" y="505" width="140" height="80" as="geometry" />
        </mxCell>
        <mxCell id="aqEgcLrSa4jlk6EzU5gQ-26" value="" style="edgeStyle=orthogonalEdgeStyle;rounded=0;orthogonalLoop=1;jettySize=auto;html=1;" parent="WIyWlLk6GJQsqaUBKTNV-1" source="aqEgcLrSa4jlk6EzU5gQ-23" target="aqEgcLrSa4jlk6EzU5gQ-25" edge="1">
          <mxGeometry relative="1" as="geometry" />
        </mxCell>
        <mxCell id="aqEgcLrSa4jlk6EzU5gQ-23" value="join player data" style="rhombus;whiteSpace=wrap;html=1;" parent="WIyWlLk6GJQsqaUBKTNV-1" vertex="1">
          <mxGeometry x="50" y="610" width="140" height="80" as="geometry" />
        </mxCell>
        <mxCell id="aqEgcLrSa4jlk6EzU5gQ-45" value="" style="edgeStyle=orthogonalEdgeStyle;rounded=0;orthogonalLoop=1;jettySize=auto;html=1;" parent="WIyWlLk6GJQsqaUBKTNV-1" source="aqEgcLrSa4jlk6EzU5gQ-25" target="aqEgcLrSa4jlk6EzU5gQ-44" edge="1">
          <mxGeometry relative="1" as="geometry" />
        </mxCell>
        <mxCell id="aqEgcLrSa4jlk6EzU5gQ-25" value="assign Offense or defense" style="rhombus;whiteSpace=wrap;html=1;" parent="WIyWlLk6GJQsqaUBKTNV-1" vertex="1">
          <mxGeometry x="50" y="730" width="140" height="80" as="geometry" />
        </mxCell>
        <mxCell id="aqEgcLrSa4jlk6EzU5gQ-33" value="" style="edgeStyle=orthogonalEdgeStyle;rounded=0;orthogonalLoop=1;jettySize=auto;html=1;" parent="WIyWlLk6GJQsqaUBKTNV-1" source="aqEgcLrSa4jlk6EzU5gQ-28" target="aqEgcLrSa4jlk6EzU5gQ-32" edge="1">
          <mxGeometry relative="1" as="geometry" />
        </mxCell>
        <mxCell id="aqEgcLrSa4jlk6EzU5gQ-28" value="Tracking Df" style="rounded=0;whiteSpace=wrap;html=1;" parent="WIyWlLk6GJQsqaUBKTNV-1" vertex="1">
          <mxGeometry x="300" y="30" width="120" height="60" as="geometry" />
        </mxCell>
        <mxCell id="aqEgcLrSa4jlk6EzU5gQ-31" value="" style="edgeStyle=orthogonalEdgeStyle;rounded=0;orthogonalLoop=1;jettySize=auto;html=1;" parent="WIyWlLk6GJQsqaUBKTNV-1" source="aqEgcLrSa4jlk6EzU5gQ-29" target="aqEgcLrSa4jlk6EzU5gQ-30" edge="1">
          <mxGeometry relative="1" as="geometry" />
        </mxCell>
        <mxCell id="aqEgcLrSa4jlk6EzU5gQ-29" value="Plays Df" style="rounded=0;whiteSpace=wrap;html=1;" parent="WIyWlLk6GJQsqaUBKTNV-1" vertex="1">
          <mxGeometry x="430" y="30" width="120" height="60" as="geometry" />
        </mxCell>
        <mxCell id="aqEgcLrSa4jlk6EzU5gQ-34" style="edgeStyle=orthogonalEdgeStyle;rounded=0;orthogonalLoop=1;jettySize=auto;html=1;entryX=0.5;entryY=0;entryDx=0;entryDy=0;" parent="WIyWlLk6GJQsqaUBKTNV-1" source="aqEgcLrSa4jlk6EzU5gQ-30" target="aqEgcLrSa4jlk6EzU5gQ-32" edge="1">
          <mxGeometry relative="1" as="geometry" />
        </mxCell>
        <mxCell id="aqEgcLrSa4jlk6EzU5gQ-30" value="Filter Plays With Catch" style="rhombus;whiteSpace=wrap;html=1;rounded=0;" parent="WIyWlLk6GJQsqaUBKTNV-1" vertex="1">
          <mxGeometry x="430" y="160" width="120" height="80" as="geometry" />
        </mxCell>
        <mxCell id="aqEgcLrSa4jlk6EzU5gQ-36" value="" style="edgeStyle=orthogonalEdgeStyle;rounded=0;orthogonalLoop=1;jettySize=auto;html=1;" parent="WIyWlLk6GJQsqaUBKTNV-1" source="aqEgcLrSa4jlk6EzU5gQ-32" target="aqEgcLrSa4jlk6EzU5gQ-35" edge="1">
          <mxGeometry relative="1" as="geometry" />
        </mxCell>
        <mxCell id="aqEgcLrSa4jlk6EzU5gQ-32" value="Join&lt;br&gt;&amp;nbsp;tracking df only keep ball carrier records" style="rhombus;whiteSpace=wrap;html=1;rounded=0;" parent="WIyWlLk6GJQsqaUBKTNV-1" vertex="1">
          <mxGeometry x="330" y="250" width="160" height="80" as="geometry" />
        </mxCell>
        <mxCell id="aqEgcLrSa4jlk6EzU5gQ-38" value="" style="edgeStyle=orthogonalEdgeStyle;rounded=0;orthogonalLoop=1;jettySize=auto;html=1;" parent="WIyWlLk6GJQsqaUBKTNV-1" source="aqEgcLrSa4jlk6EzU5gQ-35" target="aqEgcLrSa4jlk6EzU5gQ-37" edge="1">
          <mxGeometry relative="1" as="geometry" />
        </mxCell>
        <mxCell id="aqEgcLrSa4jlk6EzU5gQ-35" value="filter for events" style="rhombus;whiteSpace=wrap;html=1;rounded=0;" parent="WIyWlLk6GJQsqaUBKTNV-1" vertex="1">
          <mxGeometry x="335" y="360" width="150" height="90" as="geometry" />
        </mxCell>
        <mxCell id="aqEgcLrSa4jlk6EzU5gQ-40" value="" style="edgeStyle=orthogonalEdgeStyle;rounded=0;orthogonalLoop=1;jettySize=auto;html=1;" parent="WIyWlLk6GJQsqaUBKTNV-1" source="aqEgcLrSa4jlk6EzU5gQ-37" target="aqEgcLrSa4jlk6EzU5gQ-39" edge="1">
          <mxGeometry relative="1" as="geometry" />
        </mxCell>
        <mxCell id="aqEgcLrSa4jlk6EzU5gQ-37" value="Create Catch event end event col" style="rhombus;whiteSpace=wrap;html=1;rounded=0;" parent="WIyWlLk6GJQsqaUBKTNV-1" vertex="1">
          <mxGeometry x="325" y="480" width="170" height="90" as="geometry" />
        </mxCell>
        <mxCell id="aqEgcLrSa4jlk6EzU5gQ-42" value="" style="edgeStyle=orthogonalEdgeStyle;rounded=0;orthogonalLoop=1;jettySize=auto;html=1;" parent="WIyWlLk6GJQsqaUBKTNV-1" source="aqEgcLrSa4jlk6EzU5gQ-39" target="aqEgcLrSa4jlk6EzU5gQ-41" edge="1">
          <mxGeometry relative="1" as="geometry" />
        </mxCell>
        <mxCell id="aqEgcLrSa4jlk6EzU5gQ-39" value="pivot df" style="rhombus;whiteSpace=wrap;html=1;rounded=0;" parent="WIyWlLk6GJQsqaUBKTNV-1" vertex="1">
          <mxGeometry x="325" y="590" width="170" height="90" as="geometry" />
        </mxCell>
        <mxCell id="aqEgcLrSa4jlk6EzU5gQ-46" style="edgeStyle=orthogonalEdgeStyle;rounded=0;orthogonalLoop=1;jettySize=auto;html=1;exitX=0.5;exitY=1;exitDx=0;exitDy=0;entryX=1;entryY=0.5;entryDx=0;entryDy=0;" parent="WIyWlLk6GJQsqaUBKTNV-1" source="aqEgcLrSa4jlk6EzU5gQ-41" target="aqEgcLrSa4jlk6EzU5gQ-44" edge="1">
          <mxGeometry relative="1" as="geometry" />
        </mxCell>
        <mxCell id="aqEgcLrSa4jlk6EzU5gQ-41" value="Calculate YAC" style="rhombus;whiteSpace=wrap;html=1;rounded=0;" parent="WIyWlLk6GJQsqaUBKTNV-1" vertex="1">
          <mxGeometry x="340" y="700" width="140" height="90" as="geometry" />
        </mxCell>
        <mxCell id="aqEgcLrSa4jlk6EzU5gQ-54" value="" style="edgeStyle=orthogonalEdgeStyle;rounded=0;orthogonalLoop=1;jettySize=auto;html=1;" parent="WIyWlLk6GJQsqaUBKTNV-1" source="aqEgcLrSa4jlk6EzU5gQ-44" target="aqEgcLrSa4jlk6EzU5gQ-53" edge="1">
          <mxGeometry relative="1" as="geometry" />
        </mxCell>
        <mxCell id="aqEgcLrSa4jlk6EzU5gQ-56" value="" style="edgeStyle=orthogonalEdgeStyle;rounded=0;orthogonalLoop=1;jettySize=auto;html=1;" parent="WIyWlLk6GJQsqaUBKTNV-1" source="aqEgcLrSa4jlk6EzU5gQ-44" target="aqEgcLrSa4jlk6EzU5gQ-55" edge="1">
          <mxGeometry relative="1" as="geometry" />
        </mxCell>
        <mxCell id="aqEgcLrSa4jlk6EzU5gQ-44" value="Join DF" style="whiteSpace=wrap;html=1;" parent="WIyWlLk6GJQsqaUBKTNV-1" vertex="1">
          <mxGeometry x="220" y="830" width="120" height="60" as="geometry" />
        </mxCell>
        <mxCell id="aqEgcLrSa4jlk6EzU5gQ-58" value="" style="edgeStyle=orthogonalEdgeStyle;rounded=0;orthogonalLoop=1;jettySize=auto;html=1;" parent="WIyWlLk6GJQsqaUBKTNV-1" source="aqEgcLrSa4jlk6EzU5gQ-53" target="aqEgcLrSa4jlk6EzU5gQ-57" edge="1">
          <mxGeometry relative="1" as="geometry" />
        </mxCell>
        <mxCell id="aqEgcLrSa4jlk6EzU5gQ-53" value="agg players within radius of ball carrie&amp;nbsp;&lt;span style=&quot;white-space: pre;&quot;&gt;positions by o/d &lt;/span&gt;" style="rhombus;whiteSpace=wrap;html=1;" parent="WIyWlLk6GJQsqaUBKTNV-1" vertex="1">
          <mxGeometry x="50" y="880" width="150" height="120" as="geometry" />
        </mxCell>
        <mxCell id="aqEgcLrSa4jlk6EzU5gQ-59" style="edgeStyle=orthogonalEdgeStyle;rounded=0;orthogonalLoop=1;jettySize=auto;html=1;entryX=1;entryY=0.5;entryDx=0;entryDy=0;" parent="WIyWlLk6GJQsqaUBKTNV-1" source="aqEgcLrSa4jlk6EzU5gQ-55" target="aqEgcLrSa4jlk6EzU5gQ-57" edge="1">
          <mxGeometry relative="1" as="geometry" />
        </mxCell>
        <mxCell id="aqEgcLrSa4jlk6EzU5gQ-55" value="apply players downfield by o/d&amp;nbsp;" style="rhombus;whiteSpace=wrap;html=1;" parent="WIyWlLk6GJQsqaUBKTNV-1" vertex="1">
          <mxGeometry x="360" y="890" width="170" height="100" as="geometry" />
        </mxCell>
        <mxCell id="aqEgcLrSa4jlk6EzU5gQ-61" value="" style="edgeStyle=orthogonalEdgeStyle;rounded=0;orthogonalLoop=1;jettySize=auto;html=1;" parent="WIyWlLk6GJQsqaUBKTNV-1" source="aqEgcLrSa4jlk6EzU5gQ-57" target="aqEgcLrSa4jlk6EzU5gQ-60" edge="1">
          <mxGeometry relative="1" as="geometry" />
        </mxCell>
        <mxCell id="aqEgcLrSa4jlk6EzU5gQ-57" value="Join DF" style="rhombus;whiteSpace=wrap;html=1;" parent="WIyWlLk6GJQsqaUBKTNV-1" vertex="1">
          <mxGeometry x="210" y="990" width="150" height="120" as="geometry" />
        </mxCell>
        <mxCell id="aqEgcLrSa4jlk6EzU5gQ-60" value="Pivot to one Record Per Play" style="rhombus;whiteSpace=wrap;html=1;" parent="WIyWlLk6GJQsqaUBKTNV-1" vertex="1">
          <mxGeometry x="180" y="1200" width="180" height="120" as="geometry" />
        </mxCell>
      </root>
    </mxGraphModel>
  </diagram>
</mxfile>
